name rise31.4854peak64.571fall78.6902.mot
datacolumns 19
datarows 18
range 21.41992700000000 21.44825600000000
endheader
time	ground_force1_vx	ground_force1_vy	ground_force1_vz	ground_force1_px	ground_force1_py	ground_force1_pz	ground_force2_vx	ground_force2_vy	ground_force2_vz	ground_force2_px	ground_force2_py	ground_force2_pz	ground_torque1_x	ground_torque1_y	ground_torque1_z	ground_torque2_x	ground_torque2_y	ground_torque2_z	
21.41992700000000	70.87505800000000	777.85792000000004	58.02330500000000	0.33861400000000	0.00000000000000	0.09892200000000	0.00000000000000	0.00000000000000	0.00000000000000	0.00000000000000	0.00000000000000	0.00000000000000	0.00000000000000	24.39006200000000	0.00000000000000	0.00000000000000	0.00000000000000	0.00000000000000	
21.42159000000000	70.09194599999999	778.44287799999995	57.78668700000000	0.33737500000000	0.00000000000000	0.09891400000000	0.00000000000000	0.00000000000000	0.00000000000000	0.00000000000000	0.00000000000000	0.00000000000000	0.00000000000000	24.19952100000000	0.00000000000000	0.00000000000000	0.00000000000000	0.00000000000000	
21.42325400000000	69.31754700000000	778.92705000000001	57.55034300000000	0.33617100000000	0.00000000000000	0.09890500000000	0.00000000000000	0.00000000000000	0.00000000000000	0.00000000000000	0.00000000000000	0.00000000000000	0.00000000000000	24.01174700000000	0.00000000000000	0.00000000000000	0.00000000000000	0.00000000000000	
21.42492000000000	68.55202700000000	779.31024800000000	57.31503400000000	0.33500000000000	0.00000000000000	0.09889700000000	0.00000000000000	0.00000000000000	0.00000000000000	0.00000000000000	0.00000000000000	0.00000000000000	0.00000000000000	23.82729000000000	0.00000000000000	0.00000000000000	0.00000000000000	0.00000000000000	
21.42658200000000	67.79546200000000	779.59239300000002	57.08142900000000	0.33386400000000	0.00000000000000	0.09888900000000	0.00000000000000	0.00000000000000	0.00000000000000	0.00000000000000	0.00000000000000	0.00000000000000	0.00000000000000	23.64663800000000	0.00000000000000	0.00000000000000	0.00000000000000	0.00000000000000	
21.42825000000000	67.04784500000000	779.77353200000005	56.85011400000000	0.33276100000000	0.00000000000000	0.09888100000000	0.00000000000000	0.00000000000000	0.00000000000000	0.00000000000000	0.00000000000000	0.00000000000000	0.00000000000000	23.47021300000000	0.00000000000000	0.00000000000000	0.00000000000000	0.00000000000000	
21.42992300000000	66.30909100000000	779.85384899999997	56.62158700000000	0.33169100000000	0.00000000000000	0.09887300000000	0.00000000000000	0.00000000000000	0.00000000000000	0.00000000000000	0.00000000000000	0.00000000000000	0.00000000000000	23.29837600000000	0.00000000000000	0.00000000000000	0.00000000000000	0.00000000000000	
21.43158700000000	65.57904700000000	779.83367799999996	56.39626100000000	0.33065200000000	0.00000000000000	0.09886600000000	0.00000000000000	0.00000000000000	0.00000000000000	0.00000000000000	0.00000000000000	0.00000000000000	0.00000000000000	23.13142400000000	0.00000000000000	0.00000000000000	0.00000000000000	0.00000000000000	
21.43325400000000	64.85749500000000	779.71351700000002	56.17447000000000	0.32964300000000	0.00000000000000	0.09885800000000	0.00000000000000	0.00000000000000	0.00000000000000	0.00000000000000	0.00000000000000	0.00000000000000	0.00000000000000	22.96959900000000	0.00000000000000	0.00000000000000	0.00000000000000	0.00000000000000	
21.43491600000000	64.14415700000001	779.49403299999994	55.95647100000000	0.32866400000000	0.00000000000000	0.09885200000000	0.00000000000000	0.00000000000000	0.00000000000000	0.00000000000000	0.00000000000000	0.00000000000000	0.00000000000000	22.81308200000000	0.00000000000000	0.00000000000000	0.00000000000000	0.00000000000000	
21.43659000000000	63.43870800000000	779.17607499999997	55.74244600000000	0.32771200000000	0.00000000000000	0.09884500000000	0.00000000000000	0.00000000000000	0.00000000000000	0.00000000000000	0.00000000000000	0.00000000000000	0.00000000000000	22.66200000000000	0.00000000000000	0.00000000000000	0.00000000000000	0.00000000000000	
21.43825500000000	62.74077600000000	778.76068199999997	55.53250600000000	0.32678700000000	0.00000000000000	0.09883800000000	0.00000000000000	0.00000000000000	0.00000000000000	0.00000000000000	0.00000000000000	0.00000000000000	0.00000000000000	22.51643000000000	0.00000000000000	0.00000000000000	0.00000000000000	0.00000000000000	
21.43991600000000	62.04995400000000	778.24908500000004	55.32669800000000	0.32588700000000	0.00000000000000	0.09883200000000	0.00000000000000	0.00000000000000	0.00000000000000	0.00000000000000	0.00000000000000	0.00000000000000	0.00000000000000	22.37639700000000	0.00000000000000	0.00000000000000	0.00000000000000	0.00000000000000	
21.44158500000000	61.36580300000000	777.64271399999996	55.12500500000000	0.32501000000000	0.00000000000000	0.09882600000000	0.00000000000000	0.00000000000000	0.00000000000000	0.00000000000000	0.00000000000000	0.00000000000000	0.00000000000000	22.24187700000000	0.00000000000000	0.00000000000000	0.00000000000000	0.00000000000000	
21.44325200000000	60.68786100000000	776.94320200000004	54.92735300000000	0.32415500000000	0.00000000000000	0.09882100000000	0.00000000000000	0.00000000000000	0.00000000000000	0.00000000000000	0.00000000000000	0.00000000000000	0.00000000000000	22.11280500000000	0.00000000000000	0.00000000000000	0.00000000000000	0.00000000000000	
21.44491700000000	60.01564600000000	776.15238699999998	54.73361800000000	0.32331900000000	0.00000000000000	0.09881500000000	0.00000000000000	0.00000000000000	0.00000000000000	0.00000000000000	0.00000000000000	0.00000000000000	0.00000000000000	21.98907300000000	0.00000000000000	0.00000000000000	0.00000000000000	0.00000000000000	
21.44658800000000	59.34866800000000	775.27230899999995	54.54362600000000	0.32250000000000	0.00000000000000	0.09881000000000	0.00000000000000	0.00000000000000	0.00000000000000	0.00000000000000	0.00000000000000	0.00000000000000	0.00000000000000	21.87053400000000	0.00000000000000	0.00000000000000	0.00000000000000	0.00000000000000	
21.44825600000000	58.68642900000000	774.30521299999998	54.35716100000000	0.32169700000000	0.00000000000000	0.09880600000000	0.00000000000000	0.00000000000000	0.00000000000000	0.00000000000000	0.00000000000000	0.00000000000000	0.00000000000000	21.75700700000000	0.00000000000000	0.00000000000000	0.00000000000000	0.00000000000000	
